<svg width="164" height="48" fill="none" xmlns="http://www.w3.org/2000/svg"><path d="M33.388 27.426h1.144l1.726 5.06.433.074v.449h-2.204v-.449l.56-.075-.291-.971H32.82l-.291.979.605.067v.449h-1.906l-.007-.449.448-.075 1.72-5.06zm.516 1.263-.135-.583-.142.59-.665 2.295h1.644l-.702-2.302zM38.74 35.026c-.667 0-1.15-.104-1.45-.314a.987.987 0 0 1-.448-.851c0-.205.067-.399.202-.583.14-.18.306-.314.5-.404-.229-.135-.343-.349-.343-.643 0-.17.054-.329.164-.478.11-.154.252-.274.426-.359a1.2 1.2 0 0 1-.613-.478 1.404 1.404 0 0 1-.201-.762c0-.284.082-.531.246-.74.17-.215.394-.379.673-.494.284-.114.59-.171.919-.171.583 0 1.016.112 1.3.336a.905.905 0 0 1 .33-.24c.154-.074.313-.111.478-.111h.261v.814h-.77c.075.16.112.33.112.509.005.453-.154.817-.478 1.09-.324.27-.767.404-1.33.404-.234 0-.431-.017-.59-.052a.876.876 0 0 0-.12.21.565.565 0 0 0-.038.186c0 .164.058.277.172.336.12.06.332.09.636.09h.8c1.016 0 1.524.369 1.524 1.106 0 .309-.11.586-.329.83-.22.244-.51.433-.874.568-.364.134-.75.201-1.159.201zm.053-3.938c.463 0 .695-.317.695-.95 0-.323-.06-.56-.18-.71-.114-.154-.291-.231-.53-.231-.234 0-.416.077-.546.232-.124.15-.187.376-.187.68 0 .652.25.979.748.979zm.06 3.423c.313 0 .585-.078.814-.232a.71.71 0 0 0 .344-.628c0-.214-.058-.368-.172-.463-.11-.095-.309-.142-.598-.142h-.815c-.124 0-.239-.008-.343-.023-.135.18-.202.394-.202.643 0 .274.075.484.224.628.15.145.399.217.747.217zM44.951 33.083c-.164 0-.284-.035-.358-.104-.075-.07-.112-.175-.112-.314v-.202a1.83 1.83 0 0 1-.568.44 1.599 1.599 0 0 1-.733.188c-.478 0-.82-.122-1.024-.366-.204-.25-.306-.658-.306-1.226V29.39l-.374-.104v-.426l1.27-.098h.008l.15.105v2.63c0 .365.044.619.134.763.09.145.257.217.5.217.295 0 .569-.115.823-.344v-2.743l-.5-.112v-.418l1.352-.098h.015l.18.105v3.677h.418l-.008.426-.276.06a2.883 2.883 0 0 1-.59.052zM47.243 28.173a.576.576 0 0 1-.426-.157.546.546 0 0 1-.157-.403c0-.19.06-.347.18-.471a.632.632 0 0 1 .478-.187c.2 0 .351.055.456.164a.537.537 0 0 1 .157.396c0 .2-.06.36-.18.479-.119.12-.286.18-.5.18h-.008zm-.396 1.39-.53-.142v-.5l1.367-.165h.015l.21.15V32.5l.5.06v.449h-2.085v-.449l.523-.067v-2.93zM53.078 30.796c0 .419-.087.803-.262 1.151-.17.35-.42.628-.755.837-.328.205-.722.307-1.18.307-.1 0-.205-.01-.314-.03a1.201 1.201 0 0 1-.254-.06l.022.62v.68l.695.09v.426h-2.22v-.426l.486-.09v-4.738l-.486-.134v-.516l1.234-.157h.015l.186.15v.418c.125-.154.294-.289.509-.404.214-.114.448-.171.702-.171.473 0 .862.169 1.166.508.304.334.456.847.456 1.54zm-2.01-1.427a.97.97 0 0 0-.426.097.948.948 0 0 0-.307.217v2.773c.035.05.105.092.21.127.109.034.228.052.358.052.324 0 .58-.14.77-.419.194-.284.291-.727.291-1.33 0-.508-.082-.887-.246-1.136-.165-.254-.382-.381-.65-.381zM53.689 30.938c0-.468.092-.867.276-1.195.19-.33.441-.576.755-.74.314-.17.656-.254 1.024-.254.628 0 1.111.194 1.45.582.344.384.516.907.516 1.57 0 .473-.095.877-.284 1.21a1.81 1.81 0 0 1-.748.74c-.308.16-.65.24-1.023.24-.623 0-1.107-.192-1.45-.576-.344-.388-.516-.914-.516-1.577zm2.025 1.667c.563 0 .845-.543.845-1.63 0-.567-.067-.998-.202-1.292-.135-.3-.354-.449-.658-.449-.578 0-.867.543-.867 1.63 0 .568.07 1.001.21 1.3.144.294.368.441.672.441zM62.711 33.09c-.548 0-1.021-.119-1.42-.358a2.36 2.36 0 0 1-.897-1.001 3.261 3.261 0 0 1-.306-1.435c0-.613.117-1.139.351-1.577.24-.439.576-.77 1.01-.994.433-.225.938-.337 1.516-.337a8.32 8.32 0 0 1 1.831.232l-.082 1.39h-.755l-.202-.957c-.05-.05-.144-.094-.283-.134a1.827 1.827 0 0 0-.546-.067c-.488 0-.872.199-1.151.598-.279.393-.419.964-.419 1.711 0 .732.12 1.325.36 1.779.238.448.602.672 1.09.672.2 0 .386-.025.56-.074.175-.05.307-.115.397-.195v-1.606l-.792-.075v-.5h2.272v.5l-.396.067v1.98c-.105.006-.294.048-.568.128a9.88 9.88 0 0 1-.822.186 3.825 3.825 0 0 1-.748.068zM66.158 27.545l-.553-.097v-.403l1.382-.165h.015l.202.142V32.5l.546.06v.449h-2.115v-.449l.523-.067v-4.948zM68.264 30.938c0-.468.092-.867.276-1.195.19-.33.441-.576.755-.74.314-.17.656-.254 1.024-.254.628 0 1.111.194 1.45.582.344.384.516.907.516 1.57 0 .473-.095.877-.284 1.21a1.81 1.81 0 0 1-.748.74c-.308.16-.65.24-1.023.24-.623 0-1.106-.192-1.45-.576-.344-.388-.516-.914-.516-1.577zm2.025 1.667c.563 0 .845-.543.845-1.63 0-.567-.067-.998-.202-1.292-.134-.3-.354-.449-.658-.449-.578 0-.867.543-.867 1.63 0 .568.07 1.001.21 1.3.144.294.368.441.672.441zM72.628 27.045l1.368-.165h.014l.21.142v2.205a1.69 1.69 0 0 1 .493-.336c.2-.095.414-.142.643-.142.478 0 .867.169 1.166.508.304.334.456.847.456 1.54 0 .428-.09.816-.27 1.165-.179.349-.438.625-.777.83-.334.2-.722.299-1.166.299a4.73 4.73 0 0 1-1.023-.097c-.29-.07-.474-.132-.554-.187v-5.284l-.56-.09v-.388zm2.332 2.361a.912.912 0 0 0-.426.105c-.13.065-.235.14-.314.224v2.728c.03.055.1.1.21.134.109.035.233.053.373.053.319 0 .573-.147.762-.441.194-.3.291-.74.291-1.323 0-.503-.082-.874-.246-1.113-.165-.245-.381-.367-.65-.367zM77.502 31.843c0-.454.227-.795.68-1.024.458-.23 1.049-.346 1.771-.351v-.172c0-.205-.022-.364-.067-.479a.43.43 0 0 0-.232-.254c-.11-.06-.271-.09-.485-.09-.245 0-.464.033-.658.098-.194.06-.396.14-.605.239l-.232-.479c.075-.064.2-.142.373-.231.18-.09.392-.167.636-.232.244-.07.495-.104.755-.104.383 0 .682.05.897.149.219.1.376.26.47.478.095.22.142.514.142.882v2.287h.404v.419c-.1.025-.242.05-.426.074a3.686 3.686 0 0 1-.486.038c-.17 0-.284-.025-.344-.075-.055-.05-.082-.152-.082-.306v-.202c-.134.15-.309.284-.523.403-.214.12-.456.18-.725.18-.23 0-.441-.048-.635-.142-.19-.1-.342-.242-.456-.426a1.29 1.29 0 0 1-.172-.68zm1.741.628a.9.9 0 0 0 .359-.09 1.48 1.48 0 0 0 .351-.232v-1.226c-.448 0-.784.078-1.009.232-.219.15-.329.344-.329.583 0 .24.055.421.165.546.114.124.269.187.463.187zM82.25 27.545l-.552-.097v-.403l1.382-.165h.015l.202.142V32.5l.546.06v.449h-2.115v-.449l.523-.067v-4.948zM88.014 33.09c-.269 0-.51-.022-.725-.067a10.68 10.68 0 0 1-.717-.179 2.325 2.325 0 0 0-.352-.082l.068-1.383h.605l.164.964c.065.07.18.132.344.187.17.055.361.082.576.082.334 0 .583-.072.747-.216.17-.15.254-.357.254-.62a.696.696 0 0 0-.15-.449 1.36 1.36 0 0 0-.41-.344 6.778 6.778 0 0 0-.718-.358 3.772 3.772 0 0 1-1.031-.673c-.27-.264-.404-.62-.404-1.069 0-.279.072-.53.217-.755a1.44 1.44 0 0 1 .643-.538c.289-.134.64-.202 1.053-.202.245 0 .459.018.643.053.19.035.394.082.613.142.13.035.227.057.291.067l-.044 1.308h-.598l-.157-.92c-.045-.044-.135-.087-.27-.127a1.414 1.414 0 0 0-.448-.067c-.299 0-.525.07-.68.21a.698.698 0 0 0-.224.545c0 .184.055.344.164.478.115.135.252.25.411.344.16.09.411.22.755.389.28.134.519.266.718.396.2.13.371.299.516.508.144.204.216.446.216.725 0 .274-.07.536-.209.785-.135.249-.359.456-.673.62-.309.165-.705.247-1.188.247zM90.634 30.938c0-.468.092-.867.276-1.195.19-.33.441-.576.755-.74.314-.17.655-.254 1.024-.254.628 0 1.111.194 1.45.582.344.384.516.907.516 1.57 0 .473-.095.877-.284 1.21a1.81 1.81 0 0 1-.748.74c-.309.16-.65.24-1.024.24-.622 0-1.106-.192-1.45-.576-.343-.388-.515-.914-.515-1.577zm2.025 1.667c.563 0 .845-.543.845-1.63 0-.567-.068-.998-.202-1.292-.135-.3-.354-.449-.658-.449-.578 0-.867.543-.867 1.63 0 .568.07 1.001.21 1.3.144.294.368.441.672.441zM98.705 33.083c-.165 0-.284-.035-.36-.104-.074-.07-.111-.175-.111-.314v-.202a1.827 1.827 0 0 1-.568.44 1.599 1.599 0 0 1-.733.188c-.478 0-.82-.122-1.024-.366-.204-.25-.306-.658-.306-1.226V29.39l-.374-.104v-.426l1.27-.098h.008l.15.105v2.63c0 .365.045.619.134.763.09.145.257.217.501.217.294 0 .568-.115.822-.344v-2.743l-.5-.112v-.418l1.352-.098h.015l.18.105v3.677h.418l-.007.426-.277.06a2.884 2.884 0 0 1-.59.052zM101.363 33.076c-.314 0-.546-.072-.695-.217-.15-.144-.224-.374-.224-.688V29.43h-.486v-.389a4.677 4.677 0 0 0 .456-.172c.084-.065.157-.177.216-.336a9.21 9.21 0 0 0 .247-.777h.598l.03 1.098h1.143v.576h-1.136v2.1c0 .279.008.476.023.59.015.115.047.19.097.224.05.03.137.045.261.045a1.768 1.768 0 0 0 .725-.142l.142.419c-.139.104-.343.2-.612.284-.27.084-.531.127-.785.127zM103.509 27.545l-.568-.097v-.403l1.39-.165h.023l.194.142.008 1.667-.053.65c.155-.14.364-.269.628-.389.269-.12.551-.179.845-.179.313 0 .558.06.732.18.174.114.296.29.366.53.07.24.105.558.105.957v2.055l.478.067v.449h-1.965v-.449l.433-.067v-2.055c0-.26-.017-.461-.052-.606a.538.538 0 0 0-.195-.321c-.089-.07-.224-.105-.403-.105-.155 0-.314.038-.478.112-.16.07-.302.155-.426.255v2.72l.455.067v.449h-1.935v-.449l.418-.06v-4.955zM109.505 34.025c.199-.065.383-.18.553-.344.174-.164.301-.371.381-.62.055-.17.095-.371.12-.605.025-.24.037-.574.037-1.002v-3.43l-.673-.105v-.463h2.392v.463l-.628.097v2.937c0 .533-.007.947-.022 1.24-.01.29-.035.522-.075.696a1.866 1.866 0 0 1-.643 1.001c-.324.27-.722.444-1.196.524l-.246-.389zM112.858 30.938c0-.468.092-.867.276-1.195.19-.33.441-.576.755-.74.314-.17.655-.254 1.024-.254.628 0 1.111.194 1.45.582.344.384.515.907.515 1.57 0 .473-.094.877-.284 1.21a1.807 1.807 0 0 1-.747.74c-.309.16-.65.24-1.024.24-.623 0-1.106-.192-1.45-.576-.343-.388-.515-.914-.515-1.577zm2.025 1.667c.563 0 .845-.543.845-1.63 0-.567-.068-.998-.202-1.292-.135-.3-.354-.449-.658-.449-.578 0-.867.543-.867 1.63 0 .568.07 1.001.209 1.3.145.294.369.441.673.441zM120.929 33.083c-.165 0-.284-.035-.359-.104-.075-.07-.112-.175-.112-.314v-.202a1.835 1.835 0 0 1-.568.44 1.601 1.601 0 0 1-.733.188c-.478 0-.819-.122-1.024-.366-.204-.25-.306-.658-.306-1.226V29.39l-.374-.104v-.426l1.271-.098h.007l.15.105v2.63c0 .365.045.619.134.763.09.145.257.217.501.217.294 0 .568-.115.822-.344v-2.743l-.501-.112v-.418l1.353-.098h.015l.179.105v3.677h.419l-.008.426-.276.06a2.877 2.877 0 0 1-.59.052zM122.331 32.568l.493-.06v-2.945l-.478-.134v-.516l1.158-.157h.023l.187.15v.164l-.023.605h.023c.035-.1.117-.221.246-.366.13-.15.292-.279.486-.389.199-.114.414-.171.643-.171.109 0 .204.015.284.044v1.122a.928.928 0 0 0-.546-.157c-.363 0-.68.097-.949.291V32.5l.867.068v.44h-2.414v-.44zM126.267 29.563l-.478-.134v-.516l1.241-.157h.022l.187.15v.291l-.007.18a2.3 2.3 0 0 1 .68-.427c.279-.12.56-.179.844-.179.304 0 .541.057.71.172.175.11.299.284.374.523.075.24.112.563.112.972V32.5l.456.06v.449h-1.928v-.449l.403-.06v-2.062c0-.26-.017-.461-.052-.606a.513.513 0 0 0-.194-.321c-.09-.07-.22-.105-.389-.105-.284 0-.588.122-.912.367v2.72l.449.067v.449h-1.951v-.449l.433-.067v-2.93zM130.854 31.843c0-.454.226-.795.68-1.024.458-.23 1.049-.346 1.771-.351v-.172c0-.205-.022-.364-.067-.479a.43.43 0 0 0-.232-.254c-.109-.06-.271-.09-.486-.09-.244 0-.463.033-.657.098a4.49 4.49 0 0 0-.606.239l-.231-.479c.074-.064.199-.142.373-.231.18-.09.391-.167.636-.232.244-.07.495-.104.754-.104.384 0 .683.05.897.149.22.1.376.26.471.478.095.22.142.514.142.882v2.287h.404v.419c-.1.025-.242.05-.426.074a3.703 3.703 0 0 1-.486.038c-.169 0-.284-.025-.344-.075-.055-.05-.082-.152-.082-.306v-.202a2.03 2.03 0 0 1-.523.403c-.214.12-.456.18-.725.18a1.43 1.43 0 0 1-.635-.142c-.19-.1-.342-.242-.456-.426a1.286 1.286 0 0 1-.172-.68zm1.741.628c.105 0 .224-.03.359-.09.134-.065.251-.142.351-.232v-1.226c-.448 0-.785.078-1.009.232-.219.15-.329.344-.329.583 0 .24.055.421.165.546a.598.598 0 0 0 .463.187zM135.603 27.545l-.553-.097v-.403l1.382-.165h.015l.202.142V32.5l.545.06v.449h-2.115v-.449l.524-.067v-4.948zM139.572 30.512c0-.687.122-1.295.366-1.823.25-.528.526-.947.83-1.256.304-.314.558-.528.762-.642l.381.284c-.154.094-.338.288-.553.582-.209.29-.398.683-.568 1.181-.164.498-.246 1.074-.246 1.727 0 .652.082 1.23.246 1.734.165.503.354.906.568 1.21.215.304.401.511.561.62l-.389.285c-.423-.255-.857-.688-1.3-1.3-.439-.609-.658-1.476-.658-2.602zM144.485 27.426h1.144l1.726 5.06.434.074v.449h-2.205v-.449l.561-.075-.292-.971h-1.936l-.291.979.605.067v.449h-1.905l-.008-.449.448-.075 1.719-5.06zm.516 1.263-.134-.583-.142.59-.666 2.295h1.645l-.703-2.302zM150.578 33.09c-.549 0-1.022-.119-1.42-.358a2.355 2.355 0 0 1-.897-1.001 3.252 3.252 0 0 1-.307-1.435c0-.613.117-1.139.352-1.577.239-.439.575-.77 1.008-.994.434-.225.94-.337 1.518-.337.543 0 1.153.078 1.831.232l-.083 1.39h-.754l-.202-.957c-.05-.05-.145-.094-.284-.134a1.833 1.833 0 0 0-.546-.067c-.488 0-.872.199-1.151.598-.279.393-.418.964-.418 1.711 0 .732.119 1.325.359 1.779.239.448.602.672 1.091.672.199 0 .386-.025.56-.074.175-.05.307-.115.396-.195v-1.606l-.792-.075v-.5h2.272v.5l-.396.067v1.98c-.105.006-.294.048-.568.128a9.905 9.905 0 0 1-.822.186 3.82 3.82 0 0 1-.747.068zM155.474 33.09c-.269 0-.511-.022-.725-.067a10.718 10.718 0 0 1-.718-.179 2.305 2.305 0 0 0-.351-.082l.067-1.383h.606l.164.964c.065.07.18.132.344.187.169.055.361.082.575.082.334 0 .583-.072.748-.216.169-.15.254-.357.254-.62a.694.694 0 0 0-.15-.449 1.344 1.344 0 0 0-.411-.344 6.724 6.724 0 0 0-.717-.358 3.762 3.762 0 0 1-1.031-.673c-.27-.264-.404-.62-.404-1.069 0-.279.072-.53.217-.755.144-.229.358-.408.642-.538.289-.134.641-.202 1.054-.202.244 0 .459.018.643.053.189.035.394.082.613.142.129.035.226.057.291.067l-.045 1.308h-.597l-.157-.92c-.045-.044-.135-.087-.269-.127a1.417 1.417 0 0 0-.449-.067c-.299 0-.526.07-.68.21a.699.699 0 0 0-.224.545c0 .184.055.344.164.478.115.135.252.25.411.344.16.09.411.22.755.389.279.134.518.266.718.396.199.13.371.299.515.508.145.204.217.446.217.725 0 .274-.07.536-.209.785-.135.249-.359.456-.673.62-.309.165-.705.247-1.188.247zM157.66 34.025c.199-.065.384-.18.553-.344.175-.164.302-.371.381-.62.055-.17.095-.371.12-.605.025-.24.037-.574.037-1.002v-3.43l-.672-.105v-.463h2.391v.463l-.628.097v2.937c0 .533-.007.947-.022 1.24-.01.29-.035.522-.075.696a1.865 1.865 0 0 1-.642 1.001c-.324.27-.723.444-1.196.524l-.247-.389zM163.547 30.684c0 .688-.125 1.296-.374 1.824-.244.528-.518.947-.822 1.255-.304.314-.558.529-.763.643l-.381-.284c.155-.094.337-.289.546-.583.214-.289.403-.682.568-1.18.169-.504.254-1.084.254-1.742 0-.648-.082-1.223-.247-1.726-.164-.504-.353-.905-.568-1.204-.209-.304-.393-.51-.553-.62l.381-.284c.424.254.855.688 1.293 1.3.444.608.666 1.475.666 2.601zM29.605 40.647h-.628v-.419l.628-.15v-.328c0-.324.084-.62.254-.89.174-.269.406-.48.695-.635.289-.16.595-.239.92-.239.168 0 .328.025.477.075v.956c-.05-.05-.149-.1-.299-.15a1.389 1.389 0 0 0-.455-.074c-.195 0-.334.05-.419.15-.08.094-.12.259-.12.493v.635h.95v.576h-.95v3.064l.785.06v.448h-2.429v-.448l.59-.068v-3.056zM32.14 42.149c0-.468.092-.867.276-1.196a1.86 1.86 0 0 1 .755-.74c.314-.17.655-.254 1.024-.254.628 0 1.111.194 1.45.583.344.384.516.907.516 1.57 0 .473-.095.876-.284 1.21a1.811 1.811 0 0 1-.748.74 2.2 2.2 0 0 1-1.024.24c-.622 0-1.106-.193-1.45-.576-.343-.389-.515-.914-.515-1.577zm2.025 1.666c.563 0 .845-.543.845-1.629 0-.568-.068-.999-.202-1.293-.135-.299-.354-.448-.658-.448-.578 0-.867.543-.867 1.63 0 .567.07 1 .21 1.3.144.294.368.44.672.44zM36.84 43.778l.493-.06v-2.944l-.478-.135v-.516l1.158-.156h.023l.187.149v.164l-.023.606h.023c.035-.1.117-.222.246-.366.13-.15.292-.28.486-.39.2-.114.414-.171.643-.171.11 0 .204.015.284.045v1.12a.928.928 0 0 0-.546-.156c-.364 0-.68.097-.949.291v2.452l.867.067v.441H36.84v-.44zM44.015 44.301c-.27 0-.51-.022-.725-.067a10.8 10.8 0 0 1-.718-.18 2.323 2.323 0 0 0-.35-.082l.066-1.382h.606l.164.964c.065.07.18.132.344.187.17.054.361.082.575.082.334 0 .583-.072.748-.217.17-.15.254-.356.254-.62a.696.696 0 0 0-.15-.449 1.36 1.36 0 0 0-.41-.343 6.767 6.767 0 0 0-.718-.36 3.77 3.77 0 0 1-1.032-.672c-.268-.264-.403-.62-.403-1.068 0-.28.072-.531.217-.755a1.44 1.44 0 0 1 .642-.538c.29-.135.64-.202 1.054-.202.244 0 .459.017.643.052.19.035.393.082.613.142.13.035.226.057.291.067l-.045 1.308h-.597l-.157-.919c-.045-.045-.135-.087-.27-.127a1.413 1.413 0 0 0-.448-.067c-.299 0-.526.07-.68.209a.697.697 0 0 0-.224.546c0 .184.055.343.164.478.115.134.252.249.411.344.16.09.411.219.755.388.28.135.518.267.718.396.199.13.37.3.515.509.145.204.217.446.217.725 0 .274-.07.535-.21.784-.134.25-.358.456-.672.62-.309.165-.705.247-1.188.247zM46.635 42.149c0-.468.092-.867.276-1.196.19-.329.441-.575.755-.74.314-.17.655-.254 1.024-.254.628 0 1.11.194 1.45.583.343.384.515.907.515 1.57 0 .473-.094.876-.284 1.21a1.812 1.812 0 0 1-.747.74 2.2 2.2 0 0 1-1.024.24c-.623 0-1.106-.193-1.45-.576-.343-.389-.515-.914-.515-1.577zm2.025 1.666c.563 0 .845-.543.845-1.629 0-.568-.068-.999-.202-1.293-.135-.299-.354-.448-.658-.448-.578 0-.867.543-.867 1.63 0 .567.07 1 .21 1.3.144.294.368.44.672.44zM51.238 42.164c0-.429.084-.81.254-1.144.174-.334.42-.593.74-.777.324-.19.7-.284 1.128-.284.2 0 .371.015.516.045.144.03.306.07.486.12l.216.06-.045 1.277h-.65l-.187-.822c-.03-.13-.176-.194-.44-.194a.747.747 0 0 0-.658.366c-.155.244-.234.625-.24 1.144 0 .548.095.969.285 1.263.189.288.44.433.755.433a1.9 1.9 0 0 0 1.046-.306l.172.388c-.13.14-.33.27-.598.389-.264.12-.55.18-.86.18-.637 0-1.118-.198-1.442-.591-.319-.394-.478-.91-.478-1.547zM56.1 39.384a.576.576 0 0 1-.426-.157.546.546 0 0 1-.157-.404c0-.19.06-.346.18-.47a.632.632 0 0 1 .477-.188c.2 0 .352.055.456.165a.537.537 0 0 1 .157.396c0 .2-.06.359-.18.478-.119.12-.286.18-.5.18H56.1zm-.397 1.39-.53-.142v-.501l1.368-.164h.015l.209.149v3.595l.5.06v.448H55.18v-.448l.523-.068v-2.93zM57.719 43.053c0-.453.227-.795.68-1.024.459-.229 1.049-.346 1.771-.351v-.172c0-.204-.022-.364-.067-.478a.43.43 0 0 0-.232-.254c-.11-.06-.271-.09-.485-.09-.245 0-.464.032-.658.097-.194.06-.396.14-.605.24l-.232-.479c.075-.065.2-.142.374-.232.179-.09.39-.167.635-.231.244-.07.496-.105.755-.105.383 0 .682.05.896.15.22.1.377.258.471.478.095.219.142.513.142.882v2.287h.404v.418c-.1.025-.242.05-.426.075a3.684 3.684 0 0 1-.486.037c-.17 0-.284-.025-.344-.075-.054-.05-.082-.151-.082-.306v-.202c-.134.15-.309.284-.523.404-.214.12-.456.18-.725.18a1.43 1.43 0 0 1-.635-.143 1.17 1.17 0 0 1-.456-.426 1.289 1.289 0 0 1-.172-.68zm1.741.628a.9.9 0 0 0 .36-.09c.134-.065.25-.142.35-.232v-1.225c-.448 0-.784.077-1.009.232-.219.149-.328.343-.328.583 0 .239.054.42.164.545a.6.6 0 0 0 .463.187zM62.468 38.756l-.553-.097v-.404l1.382-.164h.015l.202.142v5.478l.546.06v.448h-2.115v-.448l.523-.068v-4.947zM68.231 44.301c-.269 0-.51-.022-.725-.067a10.802 10.802 0 0 1-.717-.18 2.323 2.323 0 0 0-.352-.082l.068-1.382h.605l.165.964c.064.07.179.132.343.187.17.054.362.082.576.082.334 0 .583-.072.747-.217.17-.15.254-.356.254-.62a.696.696 0 0 0-.15-.449c-.099-.13-.236-.244-.41-.343a6.767 6.767 0 0 0-.718-.36 3.769 3.769 0 0 1-1.031-.672c-.27-.264-.404-.62-.404-1.068 0-.28.073-.531.217-.755a1.44 1.44 0 0 1 .643-.538c.289-.135.64-.202 1.053-.202.245 0 .459.017.643.052.19.035.394.082.613.142.13.035.227.057.292.067l-.045 1.308H69.3l-.157-.919c-.045-.045-.135-.087-.27-.127a1.413 1.413 0 0 0-.448-.067c-.299 0-.525.07-.68.209a.697.697 0 0 0-.224.546c0 .184.055.343.165.478.114.134.251.249.41.344.16.09.412.219.755.388.28.135.519.267.718.396.2.13.371.3.516.509.144.204.216.446.216.725 0 .274-.07.535-.209.784-.135.25-.359.456-.673.62-.308.165-.705.247-1.188.247zM70.754 42.164c0-.429.084-.81.254-1.144.174-.334.42-.593.74-.777.324-.19.7-.284 1.128-.284.2 0 .371.015.516.045.144.03.306.07.486.12l.216.06-.044 1.277h-.65l-.187-.822c-.03-.13-.177-.194-.441-.194a.746.746 0 0 0-.658.366c-.154.244-.234.625-.24 1.144 0 .548.096.969.285 1.263.19.288.44.433.755.433a1.9 1.9 0 0 0 1.046-.306l.172.388c-.13.14-.329.27-.598.389-.264.12-.55.18-.86.18-.637 0-1.118-.198-1.442-.591-.319-.394-.478-.91-.478-1.547zM75.616 39.384a.575.575 0 0 1-.426-.157.546.546 0 0 1-.157-.404c0-.19.06-.346.18-.47a.632.632 0 0 1 .478-.188c.199 0 .35.055.455.165a.537.537 0 0 1 .157.396c0 .2-.06.359-.179.478-.12.12-.286.18-.5.18h-.008zm-.396 1.39-.531-.142v-.501l1.368-.164h.015l.209.149v3.595l.5.06v.448h-2.085v-.448l.524-.068v-2.93zM79.2 44.301c-.657 0-1.148-.192-1.472-.575-.319-.389-.478-.917-.478-1.585 0-.448.082-.837.247-1.166.17-.328.406-.58.71-.754a2.08 2.08 0 0 1 1.053-.262c.499 0 .882.132 1.151.396.27.26.409.63.419 1.114 0 .329-.02.573-.06.732h-2.429c.02.453.127.807.322 1.061.194.25.47.374.83.374.194 0 .393-.032.597-.097.21-.065.374-.142.493-.232l.187.411c-.134.145-.354.28-.657.404-.3.12-.603.18-.912.18zm.584-2.548c.01-.14.015-.247.015-.322 0-.662-.222-.994-.666-.994a.651.651 0 0 0-.567.292c-.135.194-.21.535-.225 1.024h1.443zM81.845 40.774l-.478-.135v-.516l1.24-.156h.023l.187.149v.291l-.008.18c.174-.165.401-.307.68-.426.28-.12.56-.18.845-.18.304 0 .54.058.71.172.174.11.299.284.373.523.075.24.112.563.112.972v2.063l.456.06v.448h-1.928v-.448l.404-.06v-2.063c0-.259-.018-.46-.053-.605a.51.51 0 0 0-.194-.322c-.09-.07-.22-.104-.389-.104-.284 0-.588.122-.911.366v2.72l.448.068v.448h-1.95v-.448l.433-.068v-2.93zM86.416 42.164c0-.429.085-.81.254-1.144.175-.334.421-.593.74-.777.324-.19.7-.284 1.129-.284.2 0 .371.015.516.045.144.03.306.07.485.12l.217.06-.045 1.277h-.65l-.187-.822c-.03-.13-.177-.194-.44-.194a.747.747 0 0 0-.659.366c-.154.244-.234.625-.239 1.144 0 .548.095.969.284 1.263.19.288.441.433.755.433.379 0 .728-.102 1.047-.306l.171.388c-.13.14-.328.27-.597.389-.265.12-.551.18-.86.18-.638 0-1.119-.198-1.442-.591-.32-.394-.479-.91-.479-1.547zM92.272 44.301c-.657 0-1.148-.192-1.472-.575-.319-.389-.478-.917-.478-1.585 0-.448.082-.837.246-1.166.17-.328.406-.58.71-.754a2.08 2.08 0 0 1 1.054-.262c.498 0 .882.132 1.151.396.27.26.409.63.418 1.114 0 .329-.02.573-.06.732h-2.428c.02.453.127.807.321 1.061.195.25.471.374.83.374.194 0 .393-.032.598-.097.209-.065.373-.142.493-.232l.187.411c-.135.145-.354.28-.658.404-.299.12-.603.18-.912.18zm.583-2.548c.01-.14.015-.247.015-.322 0-.662-.222-.994-.665-.994a.651.651 0 0 0-.568.292c-.135.194-.21.535-.224 1.024h1.442zM95.328 43.606c.04.06.13.117.269.172.144.05.289.075.433.075.234 0 .409-.047.523-.142.12-.1.18-.23.18-.389a.46.46 0 0 0-.217-.396c-.145-.105-.389-.232-.733-.381l-.209-.09c-.344-.144-.6-.319-.77-.523-.169-.204-.254-.468-.254-.792 0-.224.068-.424.202-.598.135-.18.324-.319.568-.419.244-.1.526-.149.845-.149.234 0 .433.015.597.045.17.03.347.07.531.12.1.034.174.054.224.06v.978h-.59l-.172-.568c-.03-.05-.097-.094-.202-.134a1.004 1.004 0 0 0-.358-.06c-.205 0-.37.045-.494.135a.414.414 0 0 0-.18.358c0 .14.043.257.128.352a.99.99 0 0 0 .276.209c.1.05.284.132.553.246.27.115.491.225.666.33.179.104.326.24.44.41.12.165.18.366.18.606 0 .368-.144.667-.433.896-.29.23-.706.344-1.249.344a3.22 3.22 0 0 1-.687-.067 13.47 13.47 0 0 1-.695-.18l-.165-.052v-.986h.62l.172.59zM100.065 43.053c0-.453.226-.795.68-1.024.458-.229 1.049-.346 1.771-.351v-.172c0-.204-.022-.364-.067-.478a.43.43 0 0 0-.232-.254c-.109-.06-.271-.09-.486-.09a2.07 2.07 0 0 0-.657.097c-.195.06-.396.14-.606.24l-.231-.479c.074-.065.199-.142.373-.232.18-.09.391-.167.636-.231a2.73 2.73 0 0 1 .754-.105c.384 0 .683.05.897.15a.9.9 0 0 1 .471.478c.095.219.142.513.142.882v2.287h.404v.418c-.1.025-.242.05-.426.075a3.7 3.7 0 0 1-.486.037c-.169 0-.284-.025-.344-.075-.055-.05-.082-.151-.082-.306v-.202a2.03 2.03 0 0 1-.523.404c-.214.12-.456.18-.725.18-.229 0-.441-.048-.635-.143-.19-.1-.342-.241-.456-.426a1.285 1.285 0 0 1-.172-.68zm1.741.628c.105 0 .224-.03.359-.09.134-.065.251-.142.351-.232v-1.225c-.448 0-.785.077-1.009.232-.219.149-.329.343-.329.583 0 .239.055.42.165.545a.598.598 0 0 0 .463.187zM104.799 40.774l-.479-.135v-.516l1.241-.156h.022l.187.149v.291l-.007.18a2.3 2.3 0 0 1 .68-.426c.279-.12.56-.18.844-.18.304 0 .541.058.71.172.175.11.299.284.374.523.075.24.112.563.112.972v2.063l.456.06v.448h-1.928v-.448l.403-.06v-2.063c0-.259-.017-.46-.052-.605a.513.513 0 0 0-.194-.322c-.09-.07-.219-.104-.389-.104-.284 0-.588.122-.912.366v2.72l.449.068v.448h-1.951v-.448l.434-.068v-2.93zM111.029 44.301c-.309 0-.585-.072-.829-.217-.245-.149-.439-.378-.583-.687-.145-.309-.217-.695-.217-1.158 0-.419.085-.8.254-1.144.174-.349.428-.625.762-.83.334-.204.735-.306 1.204-.306.189 0 .368.02.538.06v-1.263l-.733-.105v-.41l1.54-.15h.022l.209.157v5.515h.404v.426a4.523 4.523 0 0 1-.889.112c-.16 0-.274-.027-.344-.082-.065-.05-.097-.152-.097-.306v-.21c-.13.175-.307.32-.531.434-.224.11-.461.164-.71.164zm.389-.62a.925.925 0 0 0 .74-.344v-2.72c-.035-.05-.11-.092-.225-.127a1.172 1.172 0 0 0-.358-.053c-.319 0-.576.14-.77.419-.189.274-.284.715-.284 1.323 0 .508.082.887.247 1.136.164.244.381.366.65.366zM116.472 39.227l-.553-.097v-.464h2.272v.464l-.628.097v1.876h2.272v-1.876l-.575-.097v-.464h2.242v.464l-.568.097v4.469l.568.075v.448h-2.25v-.448l.583-.075V41.67h-2.272v2.026l.628.075v.448h-2.287v-.448l.568-.075v-4.47zM125.53 44.294c-.165 0-.284-.035-.359-.105-.075-.07-.112-.174-.112-.314v-.202a1.835 1.835 0 0 1-.568.441 1.598 1.598 0 0 1-.732.187c-.479 0-.82-.122-1.024-.366-.205-.25-.307-.658-.307-1.226v-2.107l-.373-.105v-.426l1.27-.097h.008l.149.105v2.63c0 .364.045.618.135.763.089.144.256.216.5.216.294 0 .568-.114.822-.343v-2.743l-.5-.112v-.419l1.352-.097h.015l.18.105v3.677h.418l-.007.426-.277.06a2.877 2.877 0 0 1-.59.052zM126.932 43.77l.419-.067v-2.93l-.478-.134v-.516l1.24-.156.09.06.112.246v.314c.164-.16.399-.3.703-.419.308-.124.575-.187.799-.187.269 0 .486.045.65.135.17.09.297.23.382.419.164-.15.381-.28.65-.39a2.09 2.09 0 0 1 .792-.164c.443 0 .757.13.942.39.184.258.276.682.276 1.27v2.062l.486.068v.448h-1.936v-.448l.389-.068V41.67c0-.388-.047-.66-.142-.814-.09-.16-.264-.24-.523-.24-.14 0-.284.033-.434.098-.144.06-.274.134-.388.224.035.19.052.426.052.71v2.055l.463.068v.448h-1.95v-.448l.411-.068v-2.055c0-.259-.018-.46-.053-.605-.029-.15-.089-.257-.179-.322-.09-.07-.219-.104-.389-.104-.159 0-.318.037-.478.112a1.95 1.95 0 0 0-.418.254v2.72l.441.068v.448h-1.929v-.448zM134.419 43.053c0-.453.226-.795.68-1.024.458-.229 1.049-.346 1.771-.351v-.172c0-.204-.022-.364-.067-.478a.43.43 0 0 0-.232-.254c-.11-.06-.271-.09-.486-.09a2.07 2.07 0 0 0-.657.097c-.195.06-.396.14-.606.24l-.231-.479c.074-.065.199-.142.373-.232.18-.09.391-.167.636-.231a2.73 2.73 0 0 1 .754-.105c.384 0 .683.05.897.15.219.1.376.258.471.478.095.219.142.513.142.882v2.287h.404v.418c-.1.025-.242.05-.426.075a3.7 3.7 0 0 1-.486.037c-.17 0-.284-.025-.344-.075-.055-.05-.082-.151-.082-.306v-.202a2.03 2.03 0 0 1-.523.404c-.215.12-.456.18-.725.18-.229 0-.441-.048-.636-.143a1.166 1.166 0 0 1-.455-.426 1.285 1.285 0 0 1-.172-.68zm1.741.628c.105 0 .224-.03.359-.09.134-.065.251-.142.351-.232v-1.225c-.448 0-.785.077-1.009.232-.219.149-.329.343-.329.583 0 .239.055.42.165.545a.598.598 0 0 0 .463.187zM139.153 40.774l-.479-.135v-.516l1.241-.156h.022l.187.149v.291l-.007.18a2.3 2.3 0 0 1 .68-.426c.279-.12.56-.18.844-.18.304 0 .541.058.71.172.175.11.299.284.374.523.075.24.112.563.112.972v2.063l.456.06v.448h-1.928v-.448l.403-.06v-2.063c0-.259-.017-.46-.052-.605a.513.513 0 0 0-.194-.322c-.09-.07-.22-.104-.389-.104-.284 0-.588.122-.912.366v2.72l.449.068v.448h-1.951v-.448l.434-.068v-2.93zM144.71 39.384a.577.577 0 0 1-.426-.157.549.549 0 0 1-.157-.404c0-.19.06-.346.18-.47a.631.631 0 0 1 .478-.188c.199 0 .351.055.456.165a.536.536 0 0 1 .157.396c0 .2-.06.359-.179.478-.12.12-.287.18-.501.18h-.008zm-.396 1.39-.53-.142v-.501l1.367-.164h.015l.21.149v3.595l.5.06v.448h-2.085v-.448l.523-.068v-2.93zM147.668 44.286c-.314 0-.546-.072-.695-.217-.15-.144-.225-.373-.225-.687v-2.743h-.485v-.389a4.075 4.075 0 0 0 .455-.172c.085-.064.157-.176.217-.336.045-.104.127-.363.247-.777h.598l.03 1.099h1.143v.575h-1.136v2.1c0 .28.008.476.022.59.015.115.048.19.098.225.049.03.137.045.261.045a1.816 1.816 0 0 0 .725-.142l.142.418c-.139.105-.344.2-.613.284-.269.085-.53.127-.784.127zM150.352 39.384a.577.577 0 0 1-.426-.157.545.545 0 0 1-.157-.404c0-.19.06-.346.18-.47a.631.631 0 0 1 .478-.188c.199 0 .351.055.456.165a.54.54 0 0 1 .157.396c0 .2-.06.359-.18.478-.119.12-.286.18-.5.18h-.008zm-.396 1.39-.531-.142v-.501l1.368-.164h.015l.209.149v3.595l.501.06v.448h-2.085v-.448l.523-.068v-2.93zM153.937 44.301c-.658 0-1.148-.192-1.472-.575-.319-.389-.479-.917-.479-1.585 0-.448.083-.837.247-1.166.169-.328.406-.58.71-.754a2.08 2.08 0 0 1 1.054-.262c.498 0 .882.132 1.151.396.269.26.408.63.418 1.114 0 .329-.02.573-.059.732h-2.429c.02.453.127.807.321 1.061.194.25.471.374.83.374.194 0 .393-.032.597-.097a1.63 1.63 0 0 0 .494-.232l.187.411c-.135.145-.354.28-.658.404-.299.12-.603.18-.912.18zm.583-2.548c.01-.14.015-.247.015-.322 0-.662-.222-.994-.665-.994a.65.65 0 0 0-.568.292c-.135.194-.209.535-.224 1.024h1.442zM156.992 43.606c.04.06.13.117.269.172.145.05.289.075.434.075.234 0 .408-.047.523-.142a.48.48 0 0 0 .179-.389.46.46 0 0 0-.216-.396c-.145-.105-.389-.232-.733-.381l-.209-.09c-.344-.144-.6-.319-.77-.523-.169-.204-.254-.468-.254-.792a.95.95 0 0 1 .202-.598c.134-.18.324-.319.568-.419.244-.1.526-.149.844-.149.235 0 .434.015.598.045.17.03.347.07.531.12.1.034.174.054.224.06v.978h-.59l-.172-.568c-.03-.05-.097-.094-.202-.134a1.005 1.005 0 0 0-.359-.06c-.204 0-.368.045-.493.135a.413.413 0 0 0-.179.358c0 .14.042.257.127.352.084.09.177.159.276.209.1.05.284.132.553.246.269.115.491.225.665.33.18.104.327.24.441.41a1 1 0 0 1 .18.606c0 .368-.145.667-.434.896-.289.23-.705.344-1.248.344-.254 0-.483-.022-.687-.067-.2-.045-.431-.105-.695-.18l-.165-.052v-.986h.62l.172.59zM41.688 3.086h3.875l5.85 17.147 1.47.253v1.52H45.41v-1.52l1.9-.253-.989-3.293h-6.56l-.987 3.318 2.051.228v1.52h-6.458l-.025-1.52 1.52-.253 5.825-17.147zm1.747 4.28-.456-1.975-.481 2-2.254 7.776h5.572l-2.38-7.8zM67.73 22.284c-1.857 0-3.46-.405-4.812-1.215a7.997 7.997 0 0 1-3.039-3.394c-.692-1.436-1.038-3.056-1.038-4.863 0-2.077.397-3.858 1.19-5.344.81-1.486 1.95-2.609 3.42-3.369 1.468-.76 3.182-1.14 5.14-1.14 1.841 0 3.91.262 6.206.786l-.279 4.71H71.96l-.683-3.241c-.17-.17-.49-.321-.963-.456-.473-.152-1.089-.228-1.849-.228-1.654 0-2.955.675-3.9 2.026-.946 1.334-1.419 3.267-1.419 5.8 0 2.482.406 4.491 1.216 6.028.81 1.52 2.043 2.28 3.698 2.28.675 0 1.308-.085 1.9-.254.59-.169 1.038-.388 1.342-.658v-5.446l-2.685-.253v-1.697h7.7v1.697l-1.343.228v6.712c-.354.017-.996.16-1.925.43a33.45 33.45 0 0 1-2.786.633c-.76.152-1.604.228-2.532.228zM91.95 22.208c-2.566 0-4.474-.641-5.724-1.925-1.25-1.283-1.874-3.3-1.874-6.053V5.087l-1.672-.33v-1.57h7.65v1.57l-2.154.355v9.447c0 4.02 1.427 6.028 4.28 6.028 1.402 0 2.44-.515 3.116-1.545.675-1.047 1.013-2.507 1.013-4.381V5.112l-2.178-.354v-1.57h6.332v1.57l-1.723.329v9.371c0 2.634-.641 4.584-1.925 5.85-1.266 1.267-2.98 1.9-5.14 1.9zM109.737 5.087l-2.153-.33v-1.57h8.105v1.57l-2.229.33v15.146l2.229.278v1.495h-8.105v-1.52l2.153-.253V5.087zM125.243 5.087l-1.899-.33v-1.57h3.824c.355 0 .904-.016 1.647-.05a38.948 38.948 0 0 1 2.659-.101c1.756 0 3.141.219 4.154.658 1.03.422 1.756 1.038 2.178 1.849.439.794.658 1.807.658 3.04 0 2.127-.667 3.781-2 4.963-1.318 1.182-3.15 1.773-5.497 1.773-.928 0-1.595-.025-2-.076v4.99l3.393.253v1.52h-9.117v-1.52l2-.253V5.087zm3.698 8.535c.389.085 1.047.127 1.976.127 1.131 0 2.034-.388 2.71-1.165.692-.794 1.038-2.102 1.038-3.926 0-1.418-.312-2.448-.937-3.09-.608-.658-1.545-.987-2.811-.987-.473 0-.963.033-1.469.1-.237.035-.405.051-.507.051v8.89zM153.363 22.284c-2.752 0-4.812-.86-6.18-2.583-1.367-1.722-2.051-4.07-2.051-7.041 0-1.942.354-3.647 1.063-5.116.727-1.47 1.74-2.6 3.04-3.394s2.794-1.19 4.483-1.19c2.786 0 4.871.827 6.256 2.482 1.401 1.637 2.102 3.934 2.102 6.889 0 1.958-.372 3.698-1.115 5.217-.726 1.503-1.747 2.668-3.064 3.495-1.317.828-2.829 1.241-4.534 1.241zm.253-17.78c-1.384 0-2.465.684-3.242 2.052-.776 1.368-1.165 3.394-1.165 6.079 0 2.65.372 4.668 1.115 6.053.76 1.367 1.84 2.051 3.242 2.051 1.367 0 2.44-.717 3.216-2.152.777-1.453 1.165-3.538 1.165-6.256 0-2.634-.371-4.593-1.114-5.876-.743-1.3-1.815-1.95-3.217-1.95zM0 0l5.64 16.584c.425-1.601 1.441-3.381 4.074-5.134l.012-.007c1.445-.804 6.19-3.446 4.975-8.734 2.185.467 6.217 2.75 4.872 7.226-.526 1.748-.406 4.059-.174 4.137.58.194 1.47-1.243 1.856-1.923 1.762.463 4.532 1.623 5.73 4.506L32.649 0H0z" fill="#874545"/><path fill-rule="evenodd" clip-rule="evenodd" d="M16.324 48 6.743 19.826c.12-2.539 1.089-4.216 5.117-7.56 5.156-4.283 4.584-6.215 4.347-7.015-.024-.081-.045-.151-.056-.21 2.923 1.864 2.803 4.505 2.378 5.593-.56 1.223-1.31 3.81.174 4.37 1.485.56 2.784-.66 3.248-1.34 2.504 1.412 3.684 3.497 4.184 5.49L16.325 48zm-.044-13.85c1.602-2.3 4.89-7.245 5.227-8.625.422-1.725.475-4.867-3.696-7.085-.633-.337-2.154-1.516-3.167-3.389-.581.514-1.448 2.503.528 5.73.528.862.274 2.834-1.795 2.341-.282-.164-.856-.752-.898-1.787-.528.493-3.01 3.45-.422 7.086 2.07 2.908 3.678 5.031 4.223 5.73z" fill="#874545"/></svg>