<svg width="81" height="93" fill="none" xmlns="http://www.w3.org/2000/svg"><path fill-rule="evenodd" clip-rule="evenodd" d="M38.768 93 19.445 46.645c-.455-8.249-.014-11.481 10.53-20.202 10.698-8.848 9.51-12.84 9.02-14.493-.051-.168-.094-.313-.116-.436 6.063 3.853 5.815 9.31 4.933 11.558-1.163 2.528-2.72 7.874.36 9.03 3.08 1.155 5.776-1.365 6.738-2.77 7.403 4.156 9.229 11.136 9.34 16.363L38.768 93zM25.524 24.757C17.68 29.96 16.75 35.276 16.445 39.45L0 0h81L62.523 40.689c-.645-9.841-8.485-13.29-13.057-14.487-.802 1.405-2.647 4.374-3.85 3.973-.481-.16-.73-4.936.361-8.548C48.768 12.381 40.403 7.662 35.871 6.7c2.52 10.925-7.326 16.383-10.323 18.045l-.024.014zm14.213 45.356c3.646-4.49 11.13-14.146 11.9-16.84.962-3.369 1.082-9.503-8.414-13.834-1.443-.657-4.905-2.959-7.213-6.615-1.322 1.002-3.295 4.886 1.202 11.186 1.202 1.684.625 5.534-4.087 4.571-.64-.32-1.947-1.467-2.043-3.488-1.202.962-6.852 6.736-.962 13.833 4.712 5.678 8.374 9.824 9.617 11.187z" fill="#874545"/></svg>