<svg width="159" height="48" fill="none" xmlns="http://www.w3.org/2000/svg"><path d="M28.613 33.342h1.144l1.726 5.06.434.075v.448h-2.205v-.448l.56-.075-.291-.971h-1.936l-.291.979.605.067v.448h-1.906l-.007-.448.448-.075 1.72-5.06Zm.516 1.263-.135-.582-.142.59-.665 2.294h1.644l-.702-2.302ZM33.965 40.943c-.667 0-1.15-.105-1.45-.314a.987.987 0 0 1-.448-.852c0-.204.067-.398.202-.583.14-.18.306-.314.5-.403-.228-.135-.343-.35-.343-.643 0-.17.055-.329.164-.478.11-.155.252-.274.426-.36a1.2 1.2 0 0 1-.612-.477 1.403 1.403 0 0 1-.202-.763c0-.284.082-.53.246-.74.17-.214.394-.378.673-.493.284-.115.59-.172.92-.172.582 0 1.016.112 1.3.337a.904.904 0 0 1 .328-.24c.155-.074.314-.112.479-.112h.261v.815h-.77c.075.16.113.329.113.508.005.453-.155.817-.479 1.091-.324.27-.767.404-1.33.404-.234 0-.43-.018-.59-.053a.875.875 0 0 0-.12.21.563.563 0 0 0-.037.187c0 .164.057.276.172.336.12.06.33.09.635.09h.8c1.016 0 1.524.368 1.524 1.106 0 .309-.11.585-.329.83-.219.243-.51.433-.874.567-.364.135-.75.202-1.159.202Zm.053-3.938c.463 0 .695-.317.695-.95 0-.324-.06-.56-.18-.71-.114-.154-.291-.231-.53-.231-.234 0-.416.077-.546.231-.124.15-.187.377-.187.68 0 .653.25.98.748.98Zm.06 3.422c.313 0 .585-.077.814-.231a.71.71 0 0 0 .344-.628c0-.214-.057-.369-.172-.463-.11-.095-.309-.142-.598-.142h-.814a2.43 2.43 0 0 1-.344-.023c-.135.18-.202.394-.202.643 0 .274.075.483.224.628.15.144.399.216.748.216ZM40.177 39c-.165 0-.284-.035-.36-.105-.074-.07-.111-.174-.111-.314v-.201a1.828 1.828 0 0 1-.568.44 1.6 1.6 0 0 1-.733.187c-.478 0-.82-.122-1.024-.366-.204-.249-.306-.657-.306-1.225v-2.108l-.374-.105v-.426l1.27-.097h.008l.15.105v2.63c0 .364.045.618.134.763.09.144.257.217.501.217.294 0 .568-.115.822-.344v-2.743l-.5-.112v-.419l1.352-.097h.015l.18.105v3.677h.418l-.008.426-.276.06a2.883 2.883 0 0 1-.59.052ZM42.468 34.09a.576.576 0 0 1-.426-.157.546.546 0 0 1-.156-.404c0-.19.06-.346.179-.47a.632.632 0 0 1 .478-.188c.2 0 .352.055.456.165a.537.537 0 0 1 .157.396c0 .2-.06.359-.18.478-.119.12-.286.18-.5.18h-.008Zm-.396 1.39-.53-.142v-.5l1.367-.165h.015l.21.15v3.594l.5.06v.448H41.55v-.448l.523-.067v-2.93ZM48.303 36.713c0 .419-.087.802-.261 1.15-.17.35-.422.629-.755.838-.33.204-.723.306-1.181.306-.1 0-.205-.01-.314-.03a1.195 1.195 0 0 1-.254-.06l.022.621v.68l.695.09v.426h-2.22v-.426l.486-.09V35.48l-.485-.135v-.515l1.233-.157h.015l.187.15v.418c.124-.155.294-.29.508-.404.214-.115.448-.172.702-.172.474 0 .862.17 1.166.508.304.334.456.847.456 1.54Zm-2.01-1.428a.97.97 0 0 0-.426.098.95.95 0 0 0-.307.216v2.773c.035.05.105.092.21.127.11.035.229.052.358.052.324 0 .58-.139.77-.418.194-.284.291-.727.291-1.33 0-.508-.082-.887-.246-1.136-.165-.254-.381-.382-.65-.382ZM48.914 36.855c0-.468.092-.867.277-1.196.189-.329.44-.575.755-.74.313-.17.655-.254 1.023-.254.628 0 1.111.194 1.45.583.344.384.516.907.516 1.57 0 .473-.095.877-.284 1.21a1.81 1.81 0 0 1-.747.74c-.31.16-.65.24-1.024.24-.623 0-1.106-.192-1.45-.576-.344-.389-.516-.914-.516-1.577Zm2.026 1.667c.563 0 .844-.544.844-1.63 0-.568-.067-.999-.202-1.293-.134-.298-.354-.448-.657-.448-.578 0-.867.543-.867 1.63 0 .567.07 1 .209 1.3.144.294.369.44.672.44ZM57.936 39.007c-.548 0-1.021-.12-1.42-.358a2.36 2.36 0 0 1-.896-1.002 3.26 3.26 0 0 1-.307-1.435c0-.613.117-1.138.351-1.577.24-.438.576-.77 1.01-.994.433-.224.938-.336 1.517-.336.543 0 1.153.077 1.83.232l-.082 1.39h-.755l-.201-.957c-.05-.05-.145-.094-.284-.134a1.827 1.827 0 0 0-.546-.068c-.488 0-.872.2-1.15.598-.28.394-.42.964-.42 1.712 0 .732.12 1.325.36 1.778.239.449.602.673 1.09.673.2 0 .387-.025.561-.075a1.01 1.01 0 0 0 .396-.194v-1.607l-.792-.075v-.5h2.272v.5l-.396.068v1.98c-.105.005-.294.048-.568.127a9.848 9.848 0 0 1-.822.187 3.818 3.818 0 0 1-.748.067ZM61.383 33.462l-.553-.097v-.404l1.382-.164h.015l.202.142v5.478l.546.06v.448H60.86v-.448l.523-.067v-4.948ZM63.49 36.855c0-.468.091-.867.276-1.196.189-.329.44-.575.755-.74.313-.17.655-.254 1.023-.254.628 0 1.112.194 1.45.583.344.384.516.907.516 1.57 0 .473-.095.877-.284 1.21a1.81 1.81 0 0 1-.747.74c-.31.16-.65.24-1.024.24-.623 0-1.106-.192-1.45-.576-.344-.389-.516-.914-.516-1.577Zm2.024 1.667c.564 0 .845-.544.845-1.63 0-.568-.067-.999-.202-1.293-.134-.298-.353-.448-.657-.448-.578 0-.867.543-.867 1.63 0 .567.07 1 .209 1.3.144.294.369.44.672.44ZM67.853 32.961l1.368-.164h.015l.209.142v2.205c.135-.135.299-.247.493-.337.2-.095.414-.142.643-.142.478 0 .867.17 1.166.508.304.334.456.847.456 1.54 0 .428-.09.817-.27 1.166-.179.349-.438.625-.777.83a2.23 2.23 0 0 1-1.166.298c-.393 0-.734-.032-1.023-.097-.29-.07-.474-.132-.553-.187V33.44l-.56-.09v-.389Zm2.332 2.362a.913.913 0 0 0-.426.105c-.13.064-.234.139-.314.224v2.728c.03.054.1.1.21.134.109.035.233.052.373.052.319 0 .573-.147.762-.44.194-.3.292-.74.292-1.323 0-.504-.082-.875-.247-1.114-.164-.244-.381-.366-.65-.366ZM72.727 37.76c0-.454.227-.795.68-1.025.459-.229 1.049-.346 1.772-.35v-.173c0-.204-.023-.364-.068-.478a.43.43 0 0 0-.232-.254c-.11-.06-.271-.09-.485-.09-.244 0-.464.032-.658.097-.194.06-.396.14-.605.24l-.232-.479c.075-.065.2-.142.374-.231.18-.09.39-.167.635-.232.244-.07.496-.105.755-.105.383 0 .682.05.897.15.219.1.376.259.47.478.095.22.142.513.142.882v2.287h.404v.418c-.1.025-.242.05-.426.075a3.686 3.686 0 0 1-.486.037c-.17 0-.284-.024-.344-.074-.054-.05-.082-.152-.082-.307v-.201a2.02 2.02 0 0 1-.523.403c-.214.12-.456.18-.725.18a1.43 1.43 0 0 1-.635-.143 1.17 1.17 0 0 1-.456-.426 1.289 1.289 0 0 1-.172-.68Zm1.742.627a.9.9 0 0 0 .358-.09c.135-.064.252-.142.352-.231V36.84c-.449 0-.785.077-1.01.232-.219.15-.328.343-.328.583 0 .239.055.42.164.545.115.125.27.187.464.187ZM77.476 33.462l-.553-.097v-.404l1.382-.164h.015l.202.142v5.478l.546.06v.448h-2.115v-.448l.523-.067v-4.948ZM83.24 39.007c-.27 0-.511-.022-.726-.067a10.735 10.735 0 0 1-.717-.18 2.297 2.297 0 0 0-.352-.081l.068-1.383h.605l.165.964c.064.07.179.132.343.187.17.055.362.082.576.082.334 0 .583-.072.747-.217.17-.15.254-.356.254-.62a.695.695 0 0 0-.15-.448 1.36 1.36 0 0 0-.41-.344 6.788 6.788 0 0 0-.718-.359 3.771 3.771 0 0 1-1.031-.672c-.27-.265-.404-.62-.404-1.07 0-.278.073-.53.217-.754a1.44 1.44 0 0 1 .643-.538c.289-.135.64-.202 1.054-.202.244 0 .458.017.642.052.19.035.394.083.613.142.13.035.227.058.292.068l-.045 1.307h-.598l-.157-.919c-.045-.045-.135-.087-.27-.127a1.41 1.41 0 0 0-.448-.067c-.298 0-.525.07-.68.21a.697.697 0 0 0-.224.545c0 .184.055.343.165.478.114.135.251.25.41.344.16.09.412.22.755.389.28.134.519.266.718.396.2.13.371.299.516.508.144.204.216.446.216.725 0 .274-.07.535-.209.785-.134.249-.359.455-.672.62-.31.164-.706.246-1.189.246ZM85.859 36.855c0-.468.092-.867.276-1.196.19-.329.441-.575.755-.74.314-.17.656-.254 1.024-.254.628 0 1.111.194 1.45.583.344.384.516.907.516 1.57 0 .473-.095.877-.284 1.21a1.81 1.81 0 0 1-.748.74c-.308.16-.65.24-1.023.24-.623 0-1.106-.192-1.45-.576-.344-.389-.516-.914-.516-1.577Zm2.025 1.667c.563 0 .845-.544.845-1.63 0-.568-.067-.999-.202-1.293-.134-.298-.354-.448-.658-.448-.578 0-.867.543-.867 1.63 0 .567.07 1 .21 1.3.144.294.368.44.672.44ZM93.93 39c-.165 0-.284-.035-.359-.105-.075-.07-.112-.174-.112-.314v-.201a1.83 1.83 0 0 1-.568.44 1.6 1.6 0 0 1-.732.187c-.479 0-.82-.122-1.024-.366-.205-.249-.307-.657-.307-1.225v-2.108l-.373-.105v-.426l1.27-.097h.008l.15.105v2.63c0 .364.044.618.134.763.09.144.256.217.5.217.294 0 .568-.115.822-.344v-2.743l-.5-.112v-.419l1.352-.097h.015l.18.105v3.677h.418l-.007.426-.277.06a2.883 2.883 0 0 1-.59.052ZM96.588 38.992c-.314 0-.546-.072-.695-.216-.15-.145-.224-.374-.224-.688v-2.743h-.486v-.388a4.468 4.468 0 0 0 .456-.172c.084-.065.157-.177.217-.336.044-.105.127-.364.246-.778h.598l.03 1.099h1.144v.575h-1.136v2.1c0 .28.007.476.022.59.015.115.047.19.097.225.05.03.137.045.262.045a1.808 1.808 0 0 0 .725-.142l.142.418c-.14.105-.344.2-.613.284-.27.085-.53.127-.785.127ZM98.734 33.462l-.568-.097v-.404l1.39-.164h.023l.194.142.008 1.666-.053.65c.155-.139.364-.268.628-.388.269-.12.551-.18.845-.18.314 0 .558.06.732.18.175.115.297.291.366.53.07.24.105.559.105.957v2.056l.478.067v.448h-1.965v-.448l.433-.067v-2.056c0-.259-.017-.46-.052-.605a.542.542 0 0 0-.194-.322c-.09-.07-.225-.104-.404-.104-.154 0-.314.037-.478.112-.16.07-.302.154-.426.254v2.72l.456.068v.448h-1.936v-.448l.418-.06v-4.955ZM104.73 39.942c.199-.065.384-.18.553-.344.174-.165.301-.371.381-.62.055-.17.095-.372.12-.606.025-.239.037-.573.037-1.001v-3.43l-.672-.105v-.464h2.391v.464l-.628.097v2.937c0 .533-.007.947-.022 1.24-.01.29-.035.521-.075.696a1.861 1.861 0 0 1-.643 1.001c-.323.27-.722.444-1.195.523l-.247-.388ZM108.083 36.855c0-.468.092-.867.276-1.196.19-.329.441-.575.755-.74.314-.17.655-.254 1.024-.254.628 0 1.111.194 1.45.583.344.384.516.907.516 1.57 0 .473-.095.877-.284 1.21a1.815 1.815 0 0 1-.748.74c-.309.16-.65.24-1.024.24-.622 0-1.106-.192-1.449-.576-.344-.389-.516-.914-.516-1.577Zm2.025 1.667c.563 0 .845-.544.845-1.63 0-.568-.068-.999-.202-1.293-.135-.298-.354-.448-.658-.448-.578 0-.867.543-.867 1.63 0 .567.07 1 .21 1.3.144.294.368.44.672.44ZM116.154 39c-.165 0-.284-.035-.359-.105-.075-.07-.112-.174-.112-.314v-.201a1.837 1.837 0 0 1-.568.44 1.599 1.599 0 0 1-.733.187c-.478 0-.819-.122-1.023-.366-.205-.249-.307-.657-.307-1.225v-2.108l-.374-.105v-.426l1.271-.097h.007l.15.105v2.63c0 .364.045.618.134.763.09.144.257.217.501.217.294 0 .568-.115.822-.344v-2.743l-.5-.112v-.419l1.352-.097h.015l.18.105v3.677h.418l-.007.426-.277.06a2.877 2.877 0 0 1-.59.052ZM117.556 38.484l.494-.06V35.48l-.479-.135v-.515l1.159-.157h.022l.187.15v.164l-.023.605h.023c.035-.1.117-.222.247-.366.129-.15.291-.28.485-.389.2-.115.414-.172.643-.172.11 0 .204.015.284.045v1.121a.926.926 0 0 0-.546-.157c-.363 0-.68.097-.949.292v2.451l.867.067v.441h-2.414v-.44ZM121.493 35.48l-.479-.135v-.515l1.241-.157h.022l.187.15v.29l-.007.18a2.3 2.3 0 0 1 .68-.426c.279-.12.56-.18.844-.18.304 0 .541.058.71.172.175.11.299.285.374.524.075.239.112.563.112.971v2.063l.456.06v.448h-1.928v-.448l.403-.06v-2.063c0-.259-.017-.46-.052-.605a.513.513 0 0 0-.194-.322c-.09-.07-.219-.104-.389-.104-.284 0-.588.122-.912.366v2.72l.449.068v.448h-1.951v-.448l.434-.067v-2.93ZM126.079 37.76c0-.454.227-.795.68-1.025.458-.229 1.049-.346 1.771-.35v-.173c0-.204-.022-.364-.067-.478a.43.43 0 0 0-.232-.254c-.109-.06-.271-.09-.485-.09a2.07 2.07 0 0 0-.658.097c-.194.06-.396.14-.605.24l-.232-.479c.075-.065.199-.142.374-.231.179-.09.391-.167.635-.232.244-.07.496-.105.755-.105.383 0 .682.05.896.15.22.1.377.259.471.478.095.22.142.513.142.882v2.287h.404v.418c-.1.025-.242.05-.426.075a3.678 3.678 0 0 1-.486.037c-.169 0-.284-.024-.344-.074-.054-.05-.082-.152-.082-.307v-.201c-.134.149-.309.284-.523.403-.214.12-.456.18-.725.18-.229 0-.441-.048-.635-.143-.19-.1-.342-.241-.456-.426a1.285 1.285 0 0 1-.172-.68Zm1.741.627c.105 0 .225-.03.359-.09.135-.064.252-.142.351-.231V36.84c-.448 0-.784.077-1.009.232-.219.15-.328.343-.328.583 0 .239.054.42.164.545a.599.599 0 0 0 .463.187ZM130.828 33.462l-.553-.097v-.404l1.382-.164h.015l.202.142v5.478l.546.06v.448h-2.115v-.448l.523-.067v-4.948ZM134.797 36.429c0-.688.122-1.295.367-1.824.249-.528.525-.946.829-1.255.304-.314.558-.528.762-.643l.382.284c-.155.095-.339.29-.553.583-.21.289-.399.683-.568 1.18-.165.5-.247 1.075-.247 1.727 0 .653.082 1.231.247 1.734.164.503.353.907.568 1.21.214.305.401.512.56.621l-.389.284c-.423-.254-.857-.687-1.3-1.3-.438-.608-.658-1.475-.658-2.601ZM139.711 33.342h1.143l1.726 5.06.434.075v.448h-2.205v-.448l.561-.075-.292-.971h-1.935l-.292.979.605.067v.448h-1.905l-.008-.448.449-.075 1.719-5.06Zm.515 1.263-.134-.582-.142.59-.665 2.294h1.644l-.703-2.302ZM145.803 39.007c-.548 0-1.022-.12-1.42-.358a2.356 2.356 0 0 1-.897-1.002 3.265 3.265 0 0 1-.307-1.435c0-.613.118-1.138.352-1.577.239-.438.575-.77 1.009-.994.433-.224.939-.336 1.517-.336.543 0 1.153.077 1.831.232l-.082 1.39h-.755l-.202-.957c-.05-.05-.144-.094-.284-.134a1.824 1.824 0 0 0-.546-.068c-.488 0-.871.2-1.151.598-.279.394-.418.964-.418 1.712 0 .732.12 1.325.359 1.778.239.449.603.673 1.091.673.199 0 .386-.025.56-.075.175-.05.307-.114.396-.194v-1.607l-.792-.075v-.5h2.272v.5l-.396.068v1.98c-.104.005-.294.048-.568.127a9.865 9.865 0 0 1-.822.187 3.812 3.812 0 0 1-.747.067ZM150.699 39.007c-.269 0-.511-.022-.725-.067a10.757 10.757 0 0 1-.717-.18 2.31 2.31 0 0 0-.352-.081l.068-1.383h.605l.164.964c.065.07.18.132.344.187.17.055.361.082.576.082.333 0 .583-.072.747-.217.169-.15.254-.356.254-.62a.699.699 0 0 0-.149-.448 1.37 1.37 0 0 0-.411-.344 6.854 6.854 0 0 0-.718-.359 3.775 3.775 0 0 1-1.031-.672c-.269-.265-.404-.62-.404-1.07 0-.278.072-.53.217-.754.144-.23.359-.409.643-.538.289-.135.64-.202 1.053-.202.245 0 .459.017.643.052.189.035.394.083.613.142.13.035.227.058.291.068l-.044 1.307h-.598l-.157-.919c-.045-.045-.135-.087-.269-.127a1.414 1.414 0 0 0-.449-.067c-.299 0-.525.07-.68.21a.699.699 0 0 0-.224.545c0 .184.055.343.164.478.115.135.252.25.411.344.16.09.412.22.755.389.279.134.518.266.718.396.199.13.371.299.515.508.145.204.217.446.217.725 0 .274-.07.535-.209.785-.135.249-.359.455-.673.62-.309.164-.705.246-1.188.246ZM152.885 39.942c.2-.065.384-.18.553-.344.175-.165.302-.371.382-.62a3.09 3.09 0 0 0 .119-.606c.025-.239.037-.573.037-1.001v-3.43l-.672-.105v-.464h2.391v.464l-.627.097v2.937c0 .533-.008.947-.023 1.24-.01.29-.035.521-.075.696a1.86 1.86 0 0 1-.642 1.001c-.324.27-.723.444-1.196.523l-.247-.388ZM158.772 36.6c0 .688-.125 1.296-.374 1.825-.244.528-.518.946-.822 1.255-.304.314-.558.528-.762.643l-.382-.284c.155-.095.337-.29.546-.583.214-.29.404-.683.568-1.181.169-.503.254-1.084.254-1.741 0-.648-.082-1.224-.246-1.727-.165-.503-.354-.904-.568-1.203-.21-.304-.394-.51-.554-.62l.382-.284c.423.254.854.687 1.293 1.3.443.608.665 1.475.665 2.6ZM36.913 9.003h3.875l5.85 17.146 1.47.254v1.52h-7.472v-1.52l1.9-.254-.988-3.292h-6.56L34 26.175l2.052.228v1.52h-6.459l-.025-1.52 1.52-.254 5.825-17.146Zm1.747 4.28-.456-1.975-.48 2-2.255 7.776h5.572l-2.38-7.8ZM62.956 28.2c-1.858 0-3.462-.404-4.812-1.215a7.996 7.996 0 0 1-3.04-3.394c-.692-1.435-1.038-3.056-1.038-4.863 0-2.076.397-3.858 1.19-5.344.81-1.485 1.95-2.608 3.42-3.368 1.468-.76 3.182-1.14 5.141-1.14 1.84 0 3.909.262 6.205.785l-.278 4.711h-2.558l-.684-3.242c-.17-.169-.49-.32-.963-.456-.472-.151-1.089-.227-1.849-.227-1.654 0-2.954.675-3.9 2.026-.946 1.334-1.418 3.267-1.418 5.8 0 2.482.405 4.491 1.215 6.027.81 1.52 2.043 2.28 3.698 2.28.676 0 1.309-.084 1.9-.253.59-.17 1.038-.389 1.342-.659v-5.445l-2.685-.253v-1.697h7.7v1.697l-1.343.228v6.711c-.354.017-.996.16-1.924.43a33.45 33.45 0 0 1-2.786.634 12.95 12.95 0 0 1-2.533.228ZM87.175 28.125c-2.566 0-4.474-.642-5.724-1.925s-1.874-3.3-1.874-6.053v-9.143l-1.672-.33v-1.57h7.65v1.57l-2.154.355v9.447c0 4.019 1.427 6.028 4.28 6.028 1.402 0 2.44-.515 3.116-1.545.675-1.047 1.013-2.507 1.013-4.382V11.03l-2.178-.355v-1.57h6.332v1.57l-1.722.33v9.37c0 2.635-.642 4.585-1.925 5.851-1.267 1.267-2.98 1.9-5.142 1.9ZM104.962 11.004l-2.153-.33v-1.57h8.105v1.57l-2.229.33v15.145l2.229.279v1.494h-8.105v-1.52l2.153-.253V11.004ZM120.469 11.004l-1.9-.33v-1.57h3.825c.354 0 .903-.017 1.646-.05a38.97 38.97 0 0 1 2.659-.102c1.756 0 3.141.22 4.154.659 1.03.422 1.756 1.038 2.178 1.849.439.793.659 1.806.659 3.039 0 2.127-.667 3.782-2.001 4.964-1.317 1.182-3.149 1.773-5.496 1.773-.929 0-1.596-.025-2.001-.076v4.99l3.394.253v1.52h-9.118v-1.52l2.001-.254V11.004Zm3.697 8.535c.389.084 1.047.127 1.976.127 1.131 0 2.035-.389 2.71-1.165.692-.794 1.038-2.103 1.038-3.926 0-1.418-.312-2.448-.937-3.09-.608-.659-1.545-.988-2.811-.988-.473 0-.962.034-1.469.101-.236.034-.405.051-.507.051v8.89ZM148.588 28.2c-2.752 0-4.812-.86-6.18-2.582-1.367-1.723-2.051-4.07-2.051-7.041 0-1.942.354-3.648 1.064-5.117.726-1.469 1.739-2.6 3.039-3.393 1.3-.794 2.794-1.19 4.483-1.19 2.786 0 4.871.827 6.256 2.481 1.401 1.638 2.102 3.934 2.102 6.89 0 1.958-.372 3.697-1.115 5.217-.726 1.503-1.747 2.668-3.064 3.495s-2.828 1.24-4.534 1.24Zm.254-17.779c-1.385 0-2.466.684-3.242 2.052-.777 1.367-1.165 3.393-1.165 6.078 0 2.651.371 4.669 1.114 6.054.76 1.367 1.84 2.051 3.242 2.051 1.368 0 2.44-.718 3.216-2.153.777-1.452 1.166-3.537 1.166-6.256 0-2.634-.372-4.592-1.115-5.876-.743-1.3-1.815-1.95-3.216-1.95ZM0 0l5.64 16.584c.425-1.601 1.441-3.381 4.074-5.134l.012-.007c1.445-.804 6.19-3.446 4.975-8.734 2.185.467 6.217 2.75 4.872 7.226-.526 1.748-.406 4.059-.174 4.137.58.194 1.47-1.243 1.856-1.923 1.762.463 4.532 1.623 5.73 4.506L32.649 0H0Z" fill="#874545"/><path fill-rule="evenodd" clip-rule="evenodd" d="M16.324 48 6.743 19.826c.12-2.539 1.089-4.216 5.117-7.56 5.156-4.283 4.584-6.215 4.347-7.015-.024-.081-.045-.151-.056-.21 2.923 1.864 2.803 4.505 2.378 5.593-.56 1.223-1.31 3.81.174 4.37 1.485.56 2.784-.66 3.248-1.34 2.504 1.412 3.684 3.497 4.184 5.49L16.325 48Zm-.044-13.85c1.602-2.3 4.89-7.245 5.227-8.625.422-1.725.475-4.867-3.696-7.085-.633-.337-2.154-1.516-3.167-3.389-.581.514-1.448 2.503.528 5.73.528.862.274 2.834-1.795 2.341-.282-.164-.856-.752-.898-1.787-.528.493-3.01 3.45-.422 7.086 2.07 2.908 3.678 5.031 4.223 5.73Z" fill="#874545"/></svg>