<svg width="81" height="93" viewBox="0 0 81 93" fill="none" xmlns="http://www.w3.org/2000/svg">
<g clip-path="url(#clip0_196_910)">
<path fill-rule="evenodd" clip-rule="evenodd" d="M38.7683 93L19.4447 46.6452C18.9899 38.3964 19.4313 35.1636 29.9754 26.443C40.6733 17.5951 39.4859 13.6035 38.9941 11.9505C38.9439 11.7816 38.9009 11.6371 38.8786 11.5144C44.9424 15.3669 44.6938 20.8247 43.8115 23.072C42.6485 25.6002 41.0924 30.9457 44.1724 32.1014C47.2525 33.2572 49.9475 30.737 50.91 29.3324C58.3133 33.4881 60.1386 40.4685 60.2496 45.6952L38.7683 93ZM25.5237 24.7575C17.6808 29.9591 16.7505 35.276 16.4452 39.4498L0 0H81L62.5229 40.689C61.8783 30.8476 54.0379 27.3986 49.4663 26.2022C48.6642 27.6068 46.8193 30.5764 45.6162 30.1751C45.1349 30.0146 44.8868 25.2391 45.9771 21.6273C48.7684 12.3812 40.4026 7.66181 35.8708 6.69868C38.3904 17.6244 28.5455 23.0823 25.5482 24.7439L25.5237 24.7575ZM39.7366 70.1128C43.3829 65.6221 50.8678 55.967 51.6372 53.2725C52.5988 49.9044 52.719 43.7697 43.2226 39.4394C41.7801 38.7816 38.3181 36.4803 36.0101 32.8235C34.6878 33.8259 32.715 37.7103 37.2122 44.0103C38.4143 45.6944 37.8373 49.5436 33.1252 48.5813C32.4841 48.2605 31.1778 47.1138 31.0816 45.0929C29.8796 46.0552 24.2298 51.829 30.12 58.926C34.8321 64.6036 38.4944 68.7496 39.7366 70.1128Z" fill="white"/>
</g>
<defs>
<clipPath id="clip0_196_910">
<rect width="81" height="93" fill="white"/>
</clipPath>
</defs>
</svg>
